<?xml version="1.0" encoding="UTF-8" standalone="no"?>
<!-- Created with Inkscape (http://www.inkscape.org/) -->

<svg
   version="1.1"
   id="svg1"
   width="50"
   height="47.769012"
   viewBox="0 0 50 47.769012"
   xmlns="http://www.w3.org/2000/svg"
   xmlns:svg="http://www.w3.org/2000/svg">
  <defs
     id="defs1" />
  <g
     id="g1"
     transform="translate(-16.498974,-92.350381)">
    <g
       id="g2"
       transform="matrix(0.10168349,0,0,0.10168349,-58.799116,84.216193)"
       style="display:inline">
      <path
         style="fill:#d0dafb"
         d="m 963.85779,549.43976 c -23.28706,-2.40295 -48.37834,-8.49783 -69.5,-16.88213 -31.31122,-12.42907 -57.83114,-30.18988 -83.53244,-55.94301 -36.45293,-36.52645 -59.46039,-82.83973 -68.08688,-137.0567 -1.57945,-9.92676 -1.78542,-22.65279 -2.11099,-130.43294 -0.27263,-90.25002 -0.0722,-120.129562 0.82012,-122.283898 0.6495,-1.568025 2.30568,-3.735702 3.68041,-4.81706 2.46928,-1.942338 5.38552,-1.966107 241.22978,-1.966107 235.84431,0 238.76051,0.02377 241.22981,1.966107 1.3747,1.081358 3.0309,3.249035 3.6804,4.81706 0.8923,2.154255 1.0931,32.037268 0.8218,122.283898 -0.3138,104.40463 -0.5638,120.69124 -1.9867,129.43294 -9.199,56.51556 -31.7512,101.67452 -69.6858,139.54042 -37.7907,37.72226 -84.1698,61.23201 -137.0595,69.47597 -10.0947,1.57346 -50.15728,2.82951 -59.50001,1.86545 z m 71.59971,-112.63184 c 8.8392,-17.65868 20.2327,-33.23039 35.3318,-48.28845 16.6119,-16.5668 32.5292,-27.74464 53.0685,-37.26696 25.2048,-11.68533 49.1194,-17.19459 74.6384,-17.19459 h 10.6909 l 0.5644,-7.25 c 0.3103,-3.9875 0.8417,-12.51535 1.1809,-18.95076 l 0.6165,-11.70076 -34.3455,-0.29924 -34.3456,-0.29924 -6.5,-3.12521 c -11.1258,-5.34929 -18.5022,-14.37053 -21.586,-26.39945 -4.6753,-18.23703 4.2774,-37.04813 21.586,-45.35559 l 6.5,-3.11975 34.25,-0.28738 34.25,-0.28738 v -18.96262 -18.96262 h -167.5 -167.50001 v 18.25612 c 0,19.63336 1.7179,37.77286 5.06092,53.43881 16.30698,76.41718 66.46158,143.37613 138.92519,185.47218 6.3326,3.67881 11.6199,6.72118 11.7495,6.76082 0.1296,0.0396 1.6434,-2.74043 3.3641,-6.17793 z"
         id="path8" />
      <path
         style="fill:#fbdebc"
         d="m 968.35779,549.47441 c -1.925,-0.22406 -7.775,-0.88914 -13,-1.47796 -38.06464,-4.28962 -78.71058,-20.01446 -111.11834,-42.98876 -55.394,-39.26956 -91.83667,-99.56436 -101.59108,-168.08353 -1.60039,-11.24182 -1.76183,-23.14106 -1.77552,-130.86624 -0.0143,-112.862648 0.0713,-118.62727 1.80092,-121.175182 0.99879,-1.471347 3.20344,-3.158847 4.89923,-3.75 4.35098,-1.516761 473.2186,-1.516761 477.5696,0 1.6958,0.591153 3.9004,2.278653 4.8992,3.75 1.7212,2.535525 1.832,8.156477 2.1218,107.675182 0.3088,106.01669 -0.2889,133.66383 -3.2883,152.11263 -6.6407,40.84553 -25.6905,82.90961 -52.0299,114.88737 -40.1011,48.68546 -93.5829,78.90614 -155.8679,88.07549 -9.7383,1.43363 -45.40014,2.68133 -52.61971,1.841 z m 38.70091,-21.26252 c 3.9604,-0.39731 7.459,-0.98055 7.7745,-1.29609 0.3156,-0.31554 0.9932,-7.50015 1.5058,-15.9658 1.6377,-27.04771 7.5192,-49.95959 18.3874,-71.63017 10.9363,-21.80635 19.9293,-34.46223 35.6802,-50.21313 34.086,-34.08608 76.7377,-52.9071 124.0933,-54.75905 l 14.6421,-0.57261 0.6107,-3.60856 c 0.3359,-1.98471 0.9037,-10.44347 1.2619,-18.79724 l 0.6512,-15.18867 -33.904,-0.32607 c -32.3519,-0.31114 -34.1558,-0.42811 -39.404,-2.55525 -20.5253,-8.31903 -30.3993,-33.52181 -20.9822,-53.55577 2.8445,-6.05142 9.8039,-13.80637 15.2475,-16.99038 9.0112,-5.2708 12.5073,-5.69518 46.9162,-5.69518 h 31.8185 v -19 -19 h -225.00001 -225 v 19 19 l 32.25,0.0108 c 34.68213,0.0116 37.57543,0.35267 46.28242,5.45531 2.31074,1.35418 6.47949,4.95479 9.26387,8.00135 17.6904,19.35612 10.79606,50.92576 -13.62115,62.37211 l -5.67514,2.66041 -34.39181,0.31052 -34.39181,0.31052 0.66656,14.68948 c 0.36662,8.07921 0.92131,16.53382 1.23265,18.78803 l 0.56607,4.09855 15.15917,0.62907 c 24.29196,1.00805 44.06958,5.83713 66.9447,16.34583 21.50819,9.88074 35.80064,19.69634 53.49929,36.74162 31.49565,30.33295 50.68629,70.369 55.12823,115.01005 0.59782,6.00803 1.08695,13.96795 1.08695,17.68873 v 6.76505 l 4.25,0.55349 c 2.3375,0.30441 5.6,0.71456 7.25,0.91144 5.58688,0.66661 32.95638,0.53834 40.20091,-0.18841 z"
         id="path7" />
      <path
         style="fill:#65cacf"
         d="m 968.35779,549.47441 c -1.925,-0.22406 -7.775,-0.88914 -13,-1.47796 -38.06464,-4.28962 -78.71058,-20.01446 -111.11834,-42.98876 -55.394,-39.26956 -91.83667,-99.56436 -101.59108,-168.08353 -1.60039,-11.24182 -1.76183,-23.14106 -1.77552,-130.86624 -0.0143,-112.862648 0.0713,-118.62727 1.80092,-121.175182 0.99879,-1.471347 3.20344,-3.158847 4.89923,-3.75 4.35098,-1.516761 473.2186,-1.516761 477.5696,0 1.6958,0.591153 3.9004,2.278653 4.8992,3.75 1.7212,2.535525 1.832,8.156477 2.1218,107.675182 0.3088,106.01669 -0.2889,133.66383 -3.2883,152.11263 -6.6407,40.84553 -25.6905,82.90961 -52.0299,114.88737 -40.1011,48.68546 -93.5829,78.90614 -155.8679,88.07549 -9.7383,1.43363 -45.40014,2.68133 -52.61971,1.841 z m 38.70091,-21.26252 c 3.9604,-0.39731 7.459,-0.98055 7.7745,-1.29609 0.3156,-0.31554 0.9932,-7.50015 1.5058,-15.9658 1.6377,-27.04771 7.5192,-49.95959 18.3874,-71.63017 10.9363,-21.80635 19.9293,-34.46223 35.6802,-50.21313 34.086,-34.08608 76.7377,-52.9071 124.0933,-54.75905 l 14.6421,-0.57261 0.6107,-3.60856 c 0.3359,-1.98471 0.9037,-10.44347 1.2619,-18.79724 l 0.6512,-15.18867 -33.904,-0.32607 c -32.3519,-0.31114 -34.1558,-0.42811 -39.404,-2.55525 -20.5253,-8.31903 -30.3993,-33.52181 -20.9822,-53.55577 2.8445,-6.05142 9.8039,-13.80637 15.2475,-16.99038 9.0112,-5.2708 12.5073,-5.69518 46.9162,-5.69518 h 31.8185 v -19 -19 h -225.00001 -225 v 19 19 l 32.25,0.0108 c 34.68213,0.0116 37.57543,0.35267 46.28242,5.45531 2.31074,1.35418 6.47949,4.95479 9.26387,8.00135 17.6904,19.35612 10.79606,50.92576 -13.62115,62.37211 l -5.67514,2.66041 -34.39181,0.31052 -34.39181,0.31052 0.66656,14.68948 c 0.36662,8.07921 0.92131,16.53382 1.23265,18.78803 l 0.56607,4.09855 15.15917,0.62907 c 24.29196,1.00805 44.06958,5.83713 66.9447,16.34583 21.50819,9.88074 35.80064,19.69634 53.49929,36.74162 31.49565,30.33295 50.68629,70.369 55.12823,115.01005 0.59782,6.00803 1.08695,13.96795 1.08695,17.68873 v 6.76505 l 4.25,0.55349 c 2.3375,0.30441 5.6,0.71456 7.25,0.91144 5.58688,0.66661 32.95638,0.53834 40.20091,-0.18841 z m -73.06147,-16.04123 c -2.56624,-42.25256 -18.76505,-78.99455 -47.63944,-108.05537 -13.93165,-14.0216 -27.01061,-23.49806 -44.78401,-32.4486 -19.37527,-9.75723 -46.7194,-16.60877 -66.28468,-16.60877 h -8.09022 l 0.67833,3.25 c 1.6583,7.94522 9.91577,31.24755 14.79463,41.75 10.85583,23.36871 24.62865,43.0308 43.13453,61.5789 28.26086,28.32531 58.22398,46.6393 94.57051,57.80315 6.3145,1.93951 12.11106,3.54698 12.88125,3.57216 1.15659,0.0378 1.28524,-1.84931 0.7391,-10.84147 z m 118.05247,7.31293 c 26.9902,-8.16999 53.3262,-22.09383 75.3081,-39.81532 9.886,-7.96999 28.2672,-26.32138 35.2316,-35.17454 9.2054,-11.70193 19.3427,-27.79533 25.6517,-40.72294 5.3826,-11.02937 14.9571,-37.21997 16.62,-45.46287 l 0.6556,-3.25 -8.8295,1.9e-4 c -4.8562,1.1e-4 -14.3557,0.90187 -21.11,2.00392 -52.9718,8.64295 -97.4394,41.69308 -122.0903,90.74241 -7.8948,15.70885 -14.3869,38.89745 -15.6093,55.75348 -0.3191,4.4 -0.8139,10.5875 -1.0996,13.75 -0.6417,7.10237 -0.8881,7.06727 15.2717,2.17567 z"
         id="path6" />
      <path
         style="mix-blend-mode:normal;fill:#25a0ca"
         d="m 972.85779,549.45039 c -33.82385,-2.10942 -65.38204,-10.36389 -95,-24.8485 -48.65738,-23.79582 -88.48035,-63.63157 -112.00805,-112.04397 -8.22088,-16.91593 -12.78431,-29.41725 -17.49794,-47.93484 -5.02466,-19.73951 -5.91476,-26.58763 -7.02727,-54.06516 -1.23453,-30.49166 -0.20298,-222.236138 1.21122,-225.139933 2.49992,-5.133129 -11.19894,-4.860072 243.82204,-4.860072 252.52501,0 240.82181,-0.217455 243.78651,4.529747 0.9032,1.44632 1.2232,30.327208 1.3204,119.189558 0.1464,133.79177 0.2191,132.25508 -7.6929,162.66561 -17.8431,68.58235 -65.0061,126.27611 -128.914,157.69859 -23.5332,11.57091 -49.6602,19.4792 -75.9955,23.00281 -11.3515,1.51881 -35.44465,2.46472 -46.00451,1.80616 z m 37.00001,-21.25101 6,-0.64146 0.6154,-14.5 c 1.4379,-33.88194 10.256,-62.67368 27.9161,-91.14762 14.7659,-23.80744 36.2024,-45.02804 61.3949,-60.77636 26.0423,-16.2795 63.7272,-27.07602 94.5082,-27.07602 8.3056,0 8.8697,-0.13414 9.4631,-2.25 0.3471,-1.2375 0.9198,-9.7875 1.2728,-19 l 0.6417,-16.75 -29.9061,-0.006 c -16.4484,-0.003 -32.5173,-0.43345 -35.7088,-0.95614 -8.0032,-1.31077 -14.1478,-4.58335 -20.5224,-10.9302 -17.7923,-17.71487 -14.6626,-47.22537 6.4401,-60.72461 8.8767,-5.67835 14.02,-6.35183 48.635,-6.36847 l 30.75,-0.0148 v -19 -19 h -225.00001 -225 v 19 19 h 31.2899 c 34.92787,0 38.9473,0.52993 48.00762,6.32945 16.87775,10.80347 22.80831,31.6539 14.29352,50.25265 -3.51132,7.66974 -12.68942,16.5199 -20.26341,19.53937 -5.62313,2.24175 -7.01743,2.33554 -39.73231,2.67289 l -33.90469,0.34963 0.65545,16.678 c 0.36049,9.1729 0.93258,17.69051 1.27131,18.92801 0.56823,2.07593 1.1901,2.25 8.03865,2.25 25.52565,0 56.07151,7.32133 79.41049,19.03338 20.57368,10.32436 33.84492,19.85685 50.03262,35.93753 14.72592,14.62856 25.27732,29.22429 34.35924,47.52909 13.13151,26.4668 18.33296,46.70994 20.10966,78.26339 0.7646,13.57899 0.22584,12.71279 8.43195,13.55662 6.05975,0.62313 40.22861,0.49193 46.50001,-0.17855 z m -75.50001,-11.59025 c 0,-8.82375 -2.53017,-27.3911 -5.03495,-36.94844 -3.3286,-12.70069 -5.8019,-19.40658 -11.4715,-31.10277 -23.58892,-48.66316 -69.16252,-82.92169 -121.71636,-91.49645 -12.13827,-1.9805 -28.77955,-2.70547 -28.77467,-1.25355 0.009,2.74925 5.8409,21.66151 9.63604,31.25 17.22542,43.52033 46.65933,79.58419 85.981,105.34809 13.49754,8.84371 30.86363,17.8265 42.88256,22.18146 10.53085,3.81576 25.13532,8.32727 27.24788,8.41722 0.87628,0.0373 1.25,-1.87481 1.25,-6.39556 z m 116.07661,3.4879 c 20.2316,-5.74701 39.5509,-14.77082 59.3132,-27.70456 14.5764,-9.53967 22.6664,-16.20731 36.695,-30.24319 21.7835,-21.79483 36.5924,-44.11763 48.4116,-72.97507 3.8346,-9.36237 10.5036,-30.59404 10.5036,-33.4395 0,-1.60179 -25.4605,0.0375 -36.5,2.35013 -48.7922,10.22112 -90.9579,42.19546 -113.3468,85.95102 -11.9326,23.32047 -16.6297,40.84346 -18.7027,69.77206 -0.7901,11.02645 -1.6515,10.62887 13.6261,6.28911 z M 827.93043,273.02275 c 13.47634,-6.52378 13.42892,-26.42884 -0.0785,-32.96769 -3.85321,-1.8653 -6.18422,-1.99714 -35.30984,-1.99714 h -31.18427 v 18.5 18.5 h 31.18427 c 29.32008,0 31.4356,-0.12167 35.38837,-2.03517 z m 383.42737,-16.46483 v -18.5 h -31.1843 c -29.3201,0 -31.4356,0.12166 -35.3884,2.03516 -2.3911,1.15755 -5.4381,3.81586 -7.0657,6.1645 -2.3936,3.45396 -2.8616,5.13865 -2.8616,10.30034 0,5.15417 0.4691,6.84786 2.8467,10.27886 1.5668,2.26086 4.7142,5.03223 7,6.16371 3.9232,1.94194 5.8847,2.05589 35.4033,2.05664 l 31.25,7.9e-4 z"
         id="path5" />
      <path
         style="display:inline;fill:#4e6598"
         d="m 972.85779,549.45039 c -33.82385,-2.10942 -65.38204,-10.36389 -95,-24.8485 -48.65738,-23.79582 -88.48035,-63.63157 -112.00805,-112.04397 -8.22088,-16.91593 -12.78431,-29.41725 -17.49794,-47.93484 -5.02466,-19.73951 -5.91476,-26.58763 -7.02727,-54.06516 -1.23453,-30.49166 -0.20298,-222.236138 1.21122,-225.139933 2.49992,-5.133129 -11.19894,-4.860072 243.82204,-4.860072 252.52501,0 240.82181,-0.217455 243.78651,4.529747 0.9032,1.44632 1.2232,30.327208 1.3204,119.189558 0.1464,133.79177 0.2191,132.25508 -7.6929,162.66561 -17.8431,68.58235 -65.0061,126.27611 -128.914,157.69859 -23.5332,11.57091 -49.6602,19.4792 -75.9955,23.00281 -11.3515,1.51881 -35.44465,2.46472 -46.00451,1.80616 z m 37.00001,-21.25101 6,-0.64146 0.6154,-14.5 c 1.4379,-33.88194 10.256,-62.67368 27.9161,-91.14762 14.7659,-23.80744 36.2024,-45.02804 61.3949,-60.77636 26.0423,-16.2795 63.7272,-27.07602 94.5082,-27.07602 8.3056,0 8.8697,-0.13414 9.4631,-2.25 0.3471,-1.2375 0.9198,-9.7875 1.2728,-19 l 0.6417,-16.75 -29.9061,-0.006 c -16.4484,-0.003 -32.5173,-0.43345 -35.7088,-0.95614 -8.0032,-1.31077 -14.1478,-4.58335 -20.5224,-10.9302 -17.7923,-17.71487 -14.6626,-47.22537 6.4401,-60.72461 8.8767,-5.67835 14.02,-6.35183 48.635,-6.36847 l 30.75,-0.0148 v -19 -19 h -225.00001 -225 v 19 19 h 31.2899 c 34.92787,0 38.9473,0.52993 48.00762,6.32945 16.87775,10.80347 22.80831,31.6539 14.29352,50.25265 -3.51132,7.66974 -12.68942,16.5199 -20.26341,19.53937 -5.62313,2.24175 -7.01743,2.33554 -39.73231,2.67289 l -33.90469,0.34963 0.65545,16.678 c 0.36049,9.1729 0.93258,17.69051 1.27131,18.92801 0.56823,2.07593 1.1901,2.25 8.03865,2.25 25.52565,0 56.07151,7.32133 79.41049,19.03338 20.57368,10.32436 33.84492,19.85685 50.03262,35.93753 14.72592,14.62856 25.27732,29.22429 34.35924,47.52909 13.13151,26.4668 18.33296,46.70994 20.10966,78.26339 0.7646,13.57899 0.22584,12.71279 8.43195,13.55662 6.05975,0.62313 40.22861,0.49193 46.50001,-0.17855 z m -75.50001,-11.59025 c 0,-8.82375 -2.53017,-27.3911 -5.03495,-36.94844 -3.3286,-12.70069 -5.8019,-19.40658 -11.4715,-31.10277 -23.58892,-48.66316 -69.16252,-82.92169 -121.71636,-91.49645 -12.13827,-1.9805 -28.77955,-2.70547 -28.77467,-1.25355 0.009,2.74925 5.8409,21.66151 9.63604,31.25 17.22542,43.52033 46.65933,79.58419 85.981,105.34809 13.49754,8.84371 30.86363,17.8265 42.88256,22.18146 10.53085,3.81576 25.13532,8.32727 27.24788,8.41722 0.87628,0.0373 1.25,-1.87481 1.25,-6.39556 z m 116.07661,3.4879 c 20.2316,-5.74701 39.5509,-14.77082 59.3132,-27.70456 14.5764,-9.53967 22.6664,-16.20731 36.695,-30.24319 21.7835,-21.79483 36.5924,-44.11763 48.4116,-72.97507 3.8346,-9.36237 10.5036,-30.59404 10.5036,-33.4395 0,-1.60179 -25.4605,0.0375 -36.5,2.35013 -48.7922,10.22112 -90.9579,42.19546 -113.3468,85.95102 -11.9326,23.32047 -16.6297,40.84346 -18.7027,69.77206 -0.7901,11.02645 -1.6515,10.62887 13.6261,6.28911 z M 828.14763,273.16432 c 4.58273,-2.33893 6.68722,-4.61059 8.67202,-9.36088 3.50955,-8.39954 0.46397,-17.93406 -7.30175,-22.85894 l -4.55167,-2.88658 h -31.80422 -31.80422 v 18.5 18.5 h 31.53984 c 28.97616,0 31.84141,-0.15392 35.25,-1.8936 z m 383.21017,-16.6064 v -18.5 h -31.8042 -31.8043 l -4.5516,2.88658 c -8.013,5.0817 -10.9276,14.97136 -6.9592,23.61342 1.996,4.34652 3.9867,6.38707 8.6193,8.8348 2.551,1.34788 7.7518,1.59111 34.75,1.62516 l 31.75,0.04 z m 0,-127 v -28.5 h -225.00001 -225 v 28.5 28.5 h 225 225.00001 z"
         id="path4" />
      <path
         style="fill:#21548e"
         d="m 961.35779,548.43221 c -1.375,-0.19433 -6.325,-0.85175 -11,-1.46093 -10.5413,-1.37359 -30.59169,-6.1524 -42.41549,-10.10931 -78.53411,-26.28193 -137.85132,-90.07216 -159.05555,-171.0497 -7.33148,-27.99841 -6.89731,-18.71708 -7.27591,-155.53723 l -0.34114,-123.282884 2.96712,-2.96712 2.96712,-2.967121 h 239.15385 239.15381 l 2.9672,2.967121 2.9671,2.96712 -0.3412,123.282884 c -0.3766,136.10633 0.012,127.4346 -6.9111,154.28288 -4.7917,18.58317 -10.4525,33.55279 -19.2858,51 -16.3666,32.32695 -37.459,58.20428 -66.0184,80.99494 -35.053,27.97271 -77.7478,45.85018 -121.9472,51.06257 -10.7797,1.27125 -48.45217,1.82482 -55.58441,0.81678 z m 49.75001,-20.02228 5.25,-0.6306 v -8.61683 c 0,-48.7956 20.8751,-97.65143 56.3057,-131.77727 16.7101,-16.09463 29.0077,-24.7075 49.1943,-34.45419 23.1803,-11.19213 42.6267,-16.16954 71,-18.17284 l 17,-1.20028 0.6415,-6 c 0.3528,-3.3 0.6903,-11.7375 0.75,-18.75 l 0.1085,-12.75 -28.75,-0.0201 c -15.8125,-0.0111 -31.5587,-0.42635 -34.9917,-0.92287 -15.228,-2.2025 -27.6302,-12.84431 -31.9597,-27.42314 -2.3523,-7.92109 -1.3912,-20.59675 2.1179,-27.93133 5.4541,-11.40018 16.5723,-19.6593 29.2627,-21.73767 3.2014,-0.52432 18.9833,-0.95591 35.0708,-0.95909 l 29.25,-0.006 v -19 -19 h -225.00001 -225 v 19 19 l 29.25,0.006 c 16.0875,0.003 31.86934,0.43477 35.07077,0.95909 12.69038,2.07837 23.80861,10.33749 29.26274,21.73767 3.50905,7.33458 4.47016,20.01024 2.11785,27.93133 -4.32945,14.57883 -16.73171,25.22064 -31.95972,27.42314 -3.4329,0.49652 -19.17914,0.91181 -34.99164,0.92287 l -28.75,0.0201 0.10853,12.75 c 0.0597,7.0125 0.3972,15.45 0.75,18.75 l 0.64147,6 4,0.24273 c 36.65468,2.22438 54.16641,6.12504 79.46378,17.7002 20.61495,9.43266 37.24291,20.94603 53.32134,36.92025 33.83979,33.62046 52.54906,76.0168 54.56025,123.63682 l 0.65463,15.5 5,0.59289 c 6.99899,0.82994 44.90221,1.02158 51.25001,0.25912 z M 934.04515,510.30792 C 931.18051,445.67531 887.47766,386.83817 825.7332,364.48759 c -16.46651,-5.96063 -29.79568,-8.65022 -49.16529,-9.92069 l -10.28987,-0.67493 0.67266,2.83297 c 9.56682,40.29116 31.11715,78.56972 60.33985,107.17806 21.39917,20.94929 47.19482,38.26638 72.56724,48.71572 6.84728,2.81997 31.70983,11.05189 34.39839,11.38921 0.21912,0.0275 0.12416,-6.13751 -0.21103,-13.70001 z m 115.98265,10.33095 c 65.4554,-18.9176 121.2095,-69.94952 146.1697,-133.7897 4.361,-11.15396 10.4716,-31.81324 9.6522,-32.63271 -0.9955,-0.99549 -29.8102,1.90286 -39.2493,3.94792 -41.0037,8.88379 -78.8977,34.92533 -102.4322,70.39354 -10.563,15.91917 -20.1079,37.92512 -23.8559,55 -3.1866,14.51724 -5.1333,40.5 -3.0345,40.5 0.506,0 6.2435,-1.53857 12.75,-3.41905 z M 829.52362,272.54454 c 10.08275,-7.01014 11.71231,-22.13633 3.19058,-29.61604 -5.95545,-5.22722 -6.82255,-5.35013 -40.10641,-5.68489 l -31.25,-0.3143 v 19.63873 19.63873 l 31.91583,-0.32443 31.91584,-0.32442 z m 381.83418,-16.05093 v -19.5643 l -31.25,0.3143 c -29.715,0.29887 -31.4465,0.4196 -35.25,2.4579 -7.7159,4.13494 -10.9865,10.05471 -10.2207,18.49964 0.7871,8.68105 6.549,15.34556 14.6332,16.92561 1.9731,0.38563 16.75,0.75291 32.8375,0.81616 l 29.25,0.115 z m 0,-126.93569 v -28.5 h -225.00001 -225 v 28.5 28.5 h 225 225.00001 z"
         id="path3" />
      <path
         style="display:inline;fill:#042974"
         d="m 961.35779,548.39534 c -9.99994,-0.9392 -28.21627,-4.45707 -40.27131,-7.77704 -77.15557,-21.24876 -138.99241,-78.59612 -165.58197,-153.56038 -4.58967,-12.93971 -9.40392,-31.01976 -11.05038,-41.5 -2.74801,-17.49194 -3.0947,-33.60054 -3.09551,-143.82693 l -8.3e-4,-114.826921 2.92308,-2.923077 2.92307,-2.923077 h 239.15385 239.15381 l 2.9231,2.923077 2.9231,2.923077 V 201.80731 c 0,128.65914 -0.2745,135.27236 -6.6523,160.25061 -4.1404,16.21547 -7.3263,25.89506 -12.4792,37.91446 -33.6639,78.52329 -103.7017,133.18885 -187.8685,146.63407 -10.1948,1.62857 -52.05218,2.81711 -63.00001,1.78889 z m 50.25001,-19.96498 4.75,-0.56012 0.01,-7.65616 c 0.012,-9.43503 2.3072,-30.09364 4.4608,-40.15616 3.8332,-17.91033 13.0329,-40.35116 23.6601,-57.71392 14.0666,-22.9821 37.242,-46.00343 60.8691,-60.46446 9.7825,-5.98738 15.6933,-8.91561 28.9883,-14.36089 19.285,-7.89861 37.6201,-11.62312 64.1255,-13.02622 l 11.6138,-0.61479 0.6291,-6.65986 c 0.346,-3.66293 0.6323,-12.17236 0.6362,-18.90986 l 0.01,-12.25 -28.25,-0.0198 c -31.2991,-0.022 -39.8081,-0.83125 -47.3595,-4.50442 -6.5663,-3.19403 -14.777,-11.89394 -18.1233,-19.20334 -4.947,-10.80555 -4.0151,-26.40075 2.1596,-36.14129 3.2503,-5.1274 11.2726,-12.33735 16.5746,-14.89631 6.9678,-3.36297 16.1802,-4.19359 46.7486,-4.21503 l 28.25,-0.0198 v -19 -19 h -225.00001 -225 v 19 19 l 28.25,0.0198 c 30.56837,0.0214 39.78074,0.85206 46.7486,4.21503 5.302,2.55896 13.32426,9.76891 16.57459,14.89631 6.17468,9.74054 7.10657,25.33574 2.15962,36.14129 -3.34635,7.3094 -11.55698,16.00931 -18.12333,19.20334 -7.55731,3.67604 -16.06158,4.48248 -47.50128,4.50442 l -28.3918,0.0198 0.50789,18.53275 c 0.27933,10.19302 0.68064,18.69045 0.8918,18.88318 0.21115,0.19273 7.7708,0.8691 16.79922,1.50304 27.22133,1.91136 45.86854,6.6745 68.58469,17.51889 21.04345,10.04586 35.2642,20.00907 51.86866,36.33972 34.42041,33.85282 54.63134,81.36943 54.63134,128.44022 0,7.36886 0.34139,9.97597 1.35738,10.36584 5.00575,1.92089 41.87911,2.44127 55.89263,0.7888 z m -77.31009,-18.87244 c -4.80135,-71.44515 -52.99207,-130.38723 -122.3953,-149.70172 -9.44075,-2.62731 -21.7572,-4.5297 -34.79695,-5.37474 l -10.75232,-0.69679 0.63018,3.38662 c 1.43283,7.7 10.5141,33.33009 15.57969,43.97057 17.89329,37.58557 45.74916,69.33169 80.99419,92.30556 11.89928,7.75634 31.29683,17.67817 43.13445,22.06323 11.88484,4.40255 26.91919,8.55305 27.82292,7.68102 0.36123,-0.34857 0.26364,-6.48375 -0.21686,-13.63375 z m 123.06009,8.87019 c 56.1796,-18.24779 105.4412,-61.25258 131.5966,-114.88227 5.7669,-11.82465 15.1941,-37.8473 16.7505,-46.23792 l 0.6029,-3.25 h -6.4238 c -8.5921,0 -28.2104,2.62658 -37.7062,5.04824 -48.2367,12.30157 -86.5936,43.44613 -109.2045,88.67047 -10.0055,20.01221 -16.5503,46.85695 -16.5972,68.0766 l -0.018,8.29531 3.75,-0.66774 c 2.0625,-0.36725 9.825,-2.64096 17.25,-5.05269 z M 829.95203,272.50003 c 5.90761,-4.78366 7.68751,-7.79458 8.19005,-13.85446 0.59617,-7.18908 -0.14124,-9.78567 -4.04016,-14.2263 -6.23603,-7.10244 -7.45065,-7.31472 -41.99413,-7.33939 l -30.75,-0.022 v 19.5513 19.55131 l 32.40894,-0.30131 32.40894,-0.3013 z m 381.40577,-15.94211 v -19.5 h -30.5321 c -33.2313,0 -34.9561,0.24527 -40.8072,5.80304 -5.6394,5.35673 -7.3151,12.65407 -4.7149,20.53265 1.3094,3.96756 8.879,11.28721 12.3768,11.96808 1.1975,0.23313 16.0149,0.48514 32.9274,0.56004 l 30.75,0.13619 z m 0,-127.5 v -29 h -225.00001 -225 v 29 29 h 225 225.00001 z"
         id="path2" />
    </g>
  </g>
</svg>
